HIERARCHY
ROOT Hips
{
	OFFSET 0.00000 0.00000 0.00000
	CHANNELS 6 Xposition Yposition Zposition Zrotation Yrotation Xrotation 
	JOINT LHipJoint
	{
		OFFSET 0 0 0
		CHANNELS 3 Zrotation Yrotation Xrotation
		JOINT LeftHip
		{
			OFFSET 1.53794 -1.55850 0.93568
			CHANNELS 3 Zrotation Yrotation Xrotation
			JOINT LeftKnee
			{
				OFFSET 2.28545 -6.27922 0.00000
				CHANNELS 3 Zrotation Yrotation Xrotation
				JOINT LeftAnkle
				{
					OFFSET 2.37329 -6.52057 0.00000
					CHANNELS 3 Zrotation Yrotation Xrotation
					JOINT LeftToe
					{
						OFFSET 0.14846 -0.40788 2.09160
						CHANNELS 3 Zrotation Yrotation Xrotation
						End Site
						{
							OFFSET 0.00000 -0.00000 1.07536
						}
					}
				}
			}
		}
	}
	JOINT RHipJoint
	{
		OFFSET 0 0 0
		CHANNELS 3 Zrotation Yrotation Xrotation
		JOINT RightHip
		{
			OFFSET -1.78290 -1.55850 0.93568
			CHANNELS 3 Zrotation Yrotation Xrotation
			JOINT RightKnee
			{
				OFFSET -2.24144 -6.15831 0.00000
				CHANNELS 3 Zrotation Yrotation Xrotation
				JOINT RightAnkle
				{
					OFFSET -2.35091 -6.45907 0.00000
					CHANNELS 3 Zrotation Yrotation Xrotation
					JOINT RightToe
					{
						OFFSET -0.14428 -0.39641 2.07944
						CHANNELS 3 Zrotation Yrotation Xrotation
						End Site
						{
							OFFSET -0.00000 -0.00000 1.06864
						}
					}
				}
			}
		}
	}
	JOINT lowerback
	{
		OFFSET 0 0 0
		CHANNELS 3 Zrotation Yrotation Xrotation
		JOINT Chest
		{
			OFFSET -0.08841 2.11430 -0.15818
			CHANNELS 3 Zrotation Yrotation Xrotation
			JOINT Chest2
			{
				OFFSET -0.00033 2.12605 -0.08097
				CHANNELS 3 Zrotation Yrotation Xrotation
				JOINT lowerneck
				{
					OFFSET 0 0 0
					CHANNELS 3 Zrotation Yrotation Xrotation
					JOINT Neck
					{
						OFFSET 0.04431 1.59447 0.43193
						CHANNELS 3 Zrotation Yrotation Xrotation
						JOINT Head
						{
							OFFSET 0.00455 1.62017 -0.58852
							CHANNELS 3 Zrotation Yrotation Xrotation
							End Site
							{
								OFFSET -0.00920 1.72955 -0.25850
							}
						}
					}
				}
				JOINT LeftCollar
				{
					OFFSET 0 0 0
					CHANNELS 3 Zrotation Yrotation Xrotation
					JOINT LeftShoulder
					{
						OFFSET 2.86490 1.49927 -0.33774
CHANNELS 3 Zrotation Xrotation Yrotation
						JOINT LeftElbow
						{
OFFSET 0 -4.874080 0.000000
CHANNELS 3 Zrotation Xrotation Yrotation
							JOINT LeftWrist
							{
OFFSET 0 -2.767290 0.000000
CHANNELS 3 Zrotation Xrotation Yrotation
								JOINT lhand
								{
									OFFSET 0 0 0
CHANNELS 3 Zrotation Xrotation Yrotation
									JOINT LFingers
									{
OFFSET 0 -0.989220 0.000000
CHANNELS 3 Zrotation Xrotation Yrotation
										End Site
										{
OFFSET 0 -0.797530 0.000000
										}
									}
								}
								JOINT LThumb
								{
OFFSET 0 0.000000 0.000000
CHANNELS 3 Zrotation Xrotation Yrotation
									End Site
									{
OFFSET 0 -0.809720 0.809720
									}
								}
							}
						}
					}
				}
				JOINT RightCollar
				{
					OFFSET 0 0 0
					CHANNELS 3 Zrotation Yrotation Xrotation
					JOINT RightShoulder
					{
						OFFSET -2.94414 1.45463 -0.25291
CHANNELS 3 Zrotation Xrotation Yrotation
						JOINT RightElbow
						{
OFFSET 0 -4.714040 0.000000
CHANNELS 3 Zrotation Xrotation Yrotation
							JOINT RightWrist
							{
OFFSET 0 -2.834680 0.000000
CHANNELS 3 Zrotation Xrotation Yrotation
								JOINT rhand
								{
									OFFSET 0 0 0
CHANNELS 3 Zrotation Xrotation Yrotation
									JOINT RFingers
									{
OFFSET 0 -0.868200 0.000000
CHANNELS 3 Zrotation Xrotation Yrotation
										End Site
										{
OFFSET 0 -0.699960 0.000000
										}
									}
								}
								JOINT RThumb
								{
OFFSET 0 0.000000 0.000000
CHANNELS 3 Zrotation Xrotation Yrotation
									End Site
									{
OFFSET 0 -0.710650 0.710650
									}
								}
							}
						}
					}
				}
			}
		}
	}
}
MOTION
Frames: 5
Frame Time: 0.008333333333333333
0.982700 16.296200 25.924100 -179.540000 -2.179800 -170.827000 0.000000 0.000000 0.000000 -16.504600 -16.670300 -29.569500 2.308500 9.481100 27.312200 0.158100 12.329100 10.644900 0.010900 -0.674400 -1.853200 0.000000 0.000000 0.000000 25.134800 0.306800 5.941900 -4.432400 -12.714600 38.309300 -0.664500 -20.681600 19.415200 -0.818800 5.773900 -16.129700 -2.283500 4.196900 -4.464500 -1.629500 5.740000 0.515800 -0.008600 2.820000 2.969900 -2.535000 -4.006300 -37.714200 3.260500 -8.365800 39.276700 -0.543900 -3.324500 24.234200 0.000000 -0.000000 0.000000 23.600900 26.071800 -62.411700 122.304600 -55.663900 87.569300 12.963000 18.735500 -2.488600 0.000000 0.000000 0.000000 -7.125000 0.000000 0.000000 -10.975800 32.399200 -3.441100 0.000000 -0.000000 0.000000 -9.872500 14.081800 56.810400 -113.165400 -57.871900 -79.918500 -15.249200 6.357300 -1.765500 0.000000 0.000000 0.000000 7.125000 0.000000 -0.000000 8.744300 28.110900 3.631600
0.976684 16.266636 25.826294 -179.606541 -2.215927 -170.973755 0.000000 0.000000 0.000000 -16.783920 -16.405595 -29.329862 2.387711 9.627429 27.781298 0.085300 12.835601 10.091243 0.015306 -0.782020 -2.149231 0.000000 0.000000 0.000000 24.995034 0.212367 5.599746 -4.689023 -13.010692 39.432565 -0.599782 -20.580999 18.913074 -0.850582 5.879667 -16.436335 -2.286356 4.105383 -4.272747 -1.678266 5.610200 0.500912 -0.080276 2.756558 2.853043 -2.423947 -3.911016 -37.675704 3.228171 -8.264834 39.247228 -0.548488 -3.278863 24.175437 0.000000 0.000000 0.000000 23.599290 25.960686 -62.468518 122.318941 -55.659677 87.581150 13.044915 18.798000 -2.476902 0.000000 0.000000 0.000000 -7.125000 0.000000 0.000000 -10.909046 32.389872 -3.421988 0.000000 0.000000 0.000000 -9.804227 14.483598 56.745591 -112.716112 -57.955213 -79.537424 -15.488443 6.816918 -1.586781 0.000000 0.000000 0.000000 7.125000 0.000000 0.000000 8.573755 28.294480 3.523433
0.970668 16.237073 25.728488 -179.673082 -2.252053 -171.120509 0.000000 0.000000 0.000000 -17.063240 -16.140890 -29.090223 2.466922 9.773758 28.250396 0.012500 13.342102 9.537586 0.019711 -0.889640 -2.445262 0.000000 0.000000 0.000000 24.855267 0.117933 5.257592 -4.945646 -13.306784 40.555830 -0.535064 -20.480397 18.410949 -0.882363 5.985433 -16.742970 -2.289212 4.013867 -4.080993 -1.727033 5.480399 0.486024 -0.151952 2.693117 2.736186 -2.312893 -3.815732 -37.637207 3.195843 -8.163868 39.217755 -0.553076 -3.233227 24.116675 0.000000 0.000000 0.000000 23.597679 25.849572 -62.525336 122.333282 -55.655453 87.592999 13.126830 18.860500 -2.465204 0.000000 0.000000 0.000000 -7.125000 0.000000 0.000000 -10.842293 32.380544 -3.402877 0.000000 0.000000 0.000000 -9.735954 14.885395 56.680782 -112.266824 -58.038526 -79.156348 -15.727687 7.276537 -1.408063 0.000000 0.000000 0.000000 7.125000 0.000000 0.000000 8.403210 28.478060 3.415266
0.964652 16.207509 25.630682 -179.739623 -2.288180 -171.267264 0.000000 0.000000 0.000000 -17.342560 -15.876184 -28.850585 2.546133 9.920088 28.719494 -0.060300 13.848603 8.983930 0.024117 -0.997260 -2.741293 0.000000 0.000000 0.000000 24.715501 0.023500 4.915438 -5.202269 -13.602875 41.679095 -0.470346 -20.379796 17.908823 -0.914145 6.091200 -17.049605 -2.292068 3.922350 -3.889240 -1.775799 5.350599 0.471136 -0.223627 2.629675 2.619330 -2.201840 -3.720448 -37.598711 3.163514 -8.062902 39.188283 -0.557664 -3.187590 24.057912 0.000000 0.000000 0.000000 23.596069 25.738457 -62.582154 122.347624 -55.651230 87.604849 13.208746 18.922999 -2.453507 0.000000 0.000000 0.000000 -7.125000 0.000000 0.000000 -10.775539 32.371216 -3.383765 0.000000 0.000000 0.000000 -9.667682 15.287193 56.615973 -111.817537 -58.121839 -78.775273 -15.966930 7.736155 -1.229344 0.000000 0.000000 0.000000 7.125000 0.000000 0.000000 8.232664 28.661640 3.307099
0.958916 16.175232 25.532833 -179.815209 -2.332296 -171.422633 0.000000 0.000000 0.000000 -17.618584 -15.634630 -28.536497 2.631999 10.071133 29.210150 -0.136244 14.033336 8.067802 0.027446 -1.066611 -2.932121 0.000000 0.000000 0.000000 24.558980 -0.086956 4.584138 -5.469445 -13.883483 42.793660 -0.410539 -20.291082 17.425843 -0.890450 6.010552 -16.816314 -2.418907 3.818128 -3.834628 -1.715486 5.217374 0.555205 -0.100791 2.560009 2.661171 -2.306318 -3.697804 -37.601714 3.178672 -7.935296 39.130189 -0.487522 -3.157373 24.009444 0.000000 0.000000 0.000000 23.335037 25.434597 -62.575355 122.184768 -55.698477 87.470212 13.224869 18.927116 -2.469848 0.000000 0.000000 0.000000 -7.125000 0.000000 0.000000 -10.764844 32.388184 -3.375810 0.000000 0.000000 0.000000 -9.774323 15.558892 56.473398 -111.357179 -58.202459 -78.384010 -16.083807 7.970422 -1.134401 0.000000 0.000000 0.000000 7.125000 0.000000 0.000000 8.149749 28.759399 3.253526
